<?xml version="1.0" encoding="UTF-8"?><svg xmlns="http://www.w3.org/2000/svg" viewBox="0 0 247.41 280.63"><defs><style>.d{fill:#009be8;}</style></defs><g id="a"/><g id="b"><g id="c"><g><path class="d" d="M171.59,273.3c-2.49,0-4.5-2.01-4.5-4.5v-36.84c0-10.67,3.11-22.27,9.25-34.45l1.29-2.54c6.54-12.88,17.48-34.44,17.48-55.39,0-14.8-2.58-27.81-7.67-38.67-1.06-2.25-.09-4.93,2.16-5.98,2.25-1.05,4.93-.09,5.98,2.16,5.65,12.06,8.52,26.35,8.52,42.49,0,23.11-11.55,45.87-18.46,59.46l-1.28,2.52c-5.5,10.92-8.29,21.15-8.29,30.41v36.84c0,2.49-2.01,4.5-4.5,4.5Z"/><path class="d" d="M91.86,280.63c-2.49,0-4.5-2.01-4.5-4.5v-31.99l-24.47,1.88c-7.09,.87-12.88-.62-17.19-4.43-4.53-4-7.03-10.47-7.04-18.23l-.94-31.93c-2.96-.36-6.88-.83-8.94-1.07-6.75-.79-9.72-3.83-11.03-6.23-1.88-3.47-1.59-7.74,.87-12.68l12.75-26.71c1.35-3.07,1.9-6.45,1.6-9.78-.54-5.94-.79-12.74,1.1-22.15,1.45-7.21,3.87-14.09,7.21-20.43,9-17.09,24.84-30.18,42.41-35.05,3.04-1.11,33.34-11.48,66.81,.37,7.31,2.59,14,5.92,19.89,9.9,2.06,1.39,2.6,4.19,1.21,6.25-1.39,2.06-4.19,2.6-6.25,1.21-5.25-3.55-11.26-6.54-17.85-8.87-31.48-11.14-60.55-.47-60.84-.36-.13,.05-.26,.09-.4,.13-15.28,4.18-29.12,15.62-37.01,30.61-2.94,5.58-5.08,11.63-6.35,18-1.66,8.28-1.44,14.29-.96,19.56,.45,4.87-.37,9.81-2.36,14.3-.02,.04-.04,.08-.05,.12l-12.82,26.83c-1.23,2.47-1.33,3.93-1.05,4.45,.23,.43,1.37,1.25,4.16,1.58,3.58,.42,12.82,1.54,12.82,1.54,2.21,.27,3.89,2.11,3.96,4.34l1.05,35.86s0,.09,0,.13c0,5.18,1.42,9.28,4,11.55,2.31,2.04,5.75,2.79,10.23,2.23,.07,0,.14-.02,.22-.02l29.42-2.25c1.25-.1,2.48,.34,3.4,1.19,.92,.85,1.44,2.05,1.44,3.3v36.85c0,2.49-2.01,4.5-4.5,4.5Z"/><path class="d" d="M47.69,213.67c-2.55,0-4.37-.13-4.95-.18-2.48-.21-4.32-2.38-4.11-4.86,.21-2.48,2.4-4.32,4.85-4.11h0c4.76,.38,18.46,.29,24.6-4.77,1.92-1.58,4.75-1.31,6.33,.61,1.58,1.92,1.31,4.75-.61,6.33-7.31,6.02-19.31,6.97-26.12,6.97Z"/><path class="d" d="M68.89,154.95c-5.6,0-10.33-2.58-13.35-7.29-1.34-2.09-.73-4.88,1.36-6.22,2.09-1.34,4.88-.73,6.22,1.36,1.38,2.15,3.39,3.21,6.01,3.14,3.09-.08,5.93-1.77,6.6-2.95,1.23-2.16,3.98-2.91,6.14-1.67,2.16,1.23,2.91,3.98,1.67,6.14-2.43,4.26-8.27,7.33-14.19,7.48-.15,0-.31,0-.46,0Z"/><path class="d" d="M115.11,89.02h-43.56c-2.49,0-4.5-2.01-4.5-4.5s2.01-4.5,4.5-4.5h43.56c9.13,0,17.51-4.93,20.85-12.27,.12-.26,.23-.52,.34-.78,3.03-7.5,1.27-13.49-.73-17.19-3.12-5.76-9.12-10.01-16.04-11.36-1.96-.38-3.44-2.03-3.63-4.01,0-.09-.01-.18-.02-.27-.5-14.1-13.12-25.14-28.75-25.14-10.94,0-20.79,5.5-25.72,14.34-.58,1.05-1.56,1.82-2.71,2.14-1.15,.33-2.39,.18-3.43-.42-2.85-1.61-6.14-2.47-9.52-2.47-9.86,0-17.87,7.18-17.87,16,0,.93,.1,1.89,.29,2.84,.24,1.2-.02,2.45-.72,3.46-.7,1.01-1.78,1.68-2.99,1.87-8.9,1.4-15.39,8.29-15.45,16.39-.03,3.96,1.65,7.84,4.71,10.93,3.74,3.77,9.06,5.93,14.58,5.93h4.92c2.49,0,4.5,2.01,4.5,4.5s-2.01,4.5-4.5,4.5h-4.92c-7.9,0-15.54-3.13-20.96-8.59C2.56,75.64-.04,69.48,0,63.1c.07-11.17,7.79-20.82,18.87-24.25,0-.08,0-.17,0-.25,0-13.78,12.06-25,26.87-25,3.47,0,6.89,.62,10.07,1.82C62.79,5.82,74.43,0,87.14,0c19.25,0,35.04,13.1,37.44,30.41,8.22,2.48,14.98,7.84,18.9,15.08,4.14,7.64,4.55,16.46,1.17,24.85-.16,.38-.32,.77-.49,1.15-4.85,10.65-16.25,17.54-29.04,17.54Z"/><path class="d" d="M180.98,86.98c-6.57,0-11.91,4.73-11.91,10.54,0,.61,.06,1.23,.19,1.85,.24,1.2-.02,2.45-.72,3.46-.7,1.01-1.78,1.68-2.99,1.87-5.94,.94-10.28,5.5-10.32,10.85-.02,2.59,1.09,5.13,3.11,7.17,2.52,2.54,6.11,3.99,9.84,3.99h63.69c6.24,0,11.95-3.34,14.21-8.3,.08-.18,.16-.36,.23-.54,2.04-5.06,.87-9.09-.48-11.58-2.12-3.91-6.21-6.8-10.94-7.73-2.06-.4-3.57-2.19-3.64-4.28-.34-9.69-9.08-17.28-19.89-17.28-7.59,0-14.42,3.8-17.82,9.91-.58,1.05-1.56,1.82-2.71,2.14-1.15,.32-2.39,.18-3.43-.42-1.91-1.08-4.12-1.65-6.4-1.65Z"/></g></g></g></svg>